<svg width="20" height="20" viewBox="0 0 20 20" fill="none" xmlns="http://www.w3.org/2000/svg">
<path fill-rule="evenodd" clip-rule="evenodd" d="M10 0C4.47715 0 0 4.47715 0 10C0 15.5228 4.47715 20 10 20C15.5228 20 20 15.5228 20 10C20 7.34784 18.9464 4.8043 17.0711 2.92893C15.1957 1.05357 12.6522 0 10 0ZM10 15C9.44771 15 9 14.5523 9 14C9 13.4477 9.44771 13 10 13C10.5523 13 11 13.4477 11 14C11 14.5523 10.5523 15 10 15ZM10 12C10.5523 12 11 11.5523 11 11V6C11 5.44772 10.5523 5 10 5C9.44771 5 9 5.44772 9 6V11C9 11.5523 9.44771 12 10 12Z" fill="#E82629"/>
</svg>
